<?xml version="1.0" encoding="iso-8859-1"?>
<!-- Generator: Adobe Illustrator 19.0.0, SVG Export Plug-In . SVG Version: 6.00 Build 0)  -->
<svg version="1.1" id="Layer_1" xmlns="http://www.w3.org/2000/svg" xmlns:xlink="http://www.w3.org/1999/xlink" x="0px" y="0px"
	 viewBox="0 0 512 512" style="enable-background:new 0 0 512 512;" xml:space="preserve">
<g>
	<g>
		<path d="M311.56,191.179l-46.575-46.576c-5.217-5.217-13.706-5.217-18.924,0l-46.575,46.575c-5.217,5.216-5.217,13.705,0,18.924
			l46.575,46.575c2.609,2.609,6.035,3.912,9.461,3.912c3.426,0,6.853-1.305,9.462-3.912l46.575-46.575
			C316.777,204.884,316.776,196.395,311.56,191.179z M255.523,244.63l-43.99-43.99l43.99-43.991l43.99,43.99L255.523,244.63z"/>
	</g>
</g>
<g>
	<g>
		<path d="M242.663,185.989c-4.199,0-7.604,3.405-7.604,7.604v10.868c0,4.199,3.405,7.604,7.604,7.604s7.604-3.405,7.604-7.604
			v-10.868C250.267,189.393,246.863,185.989,242.663,185.989z"/>
	</g>
</g>
<g>
	<g>
		<path d="M268.383,185.989c-4.2,0-7.604,3.405-7.604,7.604v10.868c0,4.199,3.404,7.604,7.604,7.604c4.2,0,7.604-3.405,7.604-7.604
			v-10.868C275.987,189.393,272.584,185.989,268.383,185.989z"/>
	</g>
</g>
<g>
	<g>
		<path d="M430.437,307.756h-24.074V167.587v-40.956c0-15.822-4.328-30.645-11.838-43.378c0.244-0.746,0.381-1.54,0.381-2.367V19.77
			c0-10.901-8.869-19.77-19.77-19.77h-28.645c-10.901,0-19.77,8.869-19.77,19.77v21.422c-1.996-0.14-4.003-0.236-6.034-0.236
			h-11.529C307.891,18.159,288.948,0,265.841,0h-15.375c-23.108,0-42.051,18.159-43.319,40.956h-12.965V19.77
			c0-10.901-8.869-19.77-19.77-19.77h-28.645c-10.901,0-19.77,8.869-19.77,19.77v51.506c-12.683,14.943-20.358,34.264-20.358,55.355
			v40.956v140.167H81.563c-10.901,0-19.77,8.869-19.77,19.77v66.38c0,22.483,18.291,40.774,40.774,40.774h3.484
			C110.265,478.014,146.89,512,191.313,512h129.375c44.422,0,81.048-33.986,85.262-77.32h3.484
			c22.483,0,40.774-18.291,40.774-40.774v-66.38C450.207,316.624,441.338,307.756,430.437,307.756z M105.638,385.369v34.103h-3.071
			c-14.098,0-25.567-11.469-25.567-25.567v-36.094h28.638V385.369z M105.638,342.605H77.001v-15.079
			c0-2.474,2.089-4.562,4.562-4.562h24.075V342.605z M341.93,19.77c0-2.473,2.09-4.562,4.562-4.562h28.645
			c2.473,0,4.562,2.09,4.562,4.562v44.837c-10.446-9.943-23.376-17.297-37.769-20.983V19.77z M250.465,15.208h15.375
			c14.719,0,26.832,11.344,28.071,25.748h-71.517C223.635,26.552,235.746,15.208,250.465,15.208z M141.204,19.77
			c0-2.473,2.09-4.562,4.562-4.562h28.645c2.473,0,4.562,2.09,4.562,4.562v22.087c-13.958,2.023-26.828,7.426-37.769,15.345V19.77z
			 M138.698,79.823c0.364-0.331,0.696-0.695,0.991-1.088c12.878-13.871,31.25-22.572,51.625-22.572h15.762v13.26
			c0,4.199,3.405,7.604,7.604,7.604s7.604-3.405,7.604-7.604v-13.26h71.741v13.26c0,4.199,3.404,7.604,7.604,7.604
			s7.604-3.405,7.604-7.604v-13.26h11.457c36.002,0,65.766,27.145,69.946,62.041c-15.531-21.934-41.085-36.292-69.946-36.292
			H191.313c-28.861,0-54.415,14.359-69.946,36.292C123.12,103.569,129.367,90.301,138.698,79.823z M120.844,315.36V167.587
			c0-38.856,31.611-70.467,70.467-70.467h129.375c38.855,0,70.467,31.611,70.467,70.467v147.771v68.781h-45.636v-9.356h0.002
			c7.241-0.379,13.021-6.373,13.021-13.707v-45.232c0-7.579-6.165-13.744-13.744-13.744H166.228
			c-7.579,0-13.744,6.165-13.744,13.744v45.232c0,7.579,6.165,13.744,13.744,13.744h0.259v9.32h-45.642V315.36z M199.218,396.833
			c1.442,1.601,3.496,2.515,5.65,2.515h19.622c2.154,0,4.209-0.915,5.65-2.515c1.442-1.602,2.136-3.739,1.912-5.882l-1.692-16.131
			h99.952v55.287c0,3.841-3.125,6.965-6.965,6.965H188.66c-3.841,0-6.965-3.125-6.965-6.965V374.82h17.303l-1.692,16.131
			C197.08,393.094,197.775,395.232,199.218,396.833z M213.311,384.141l0.978-9.32h0.78l0.977,9.32H213.311z M221.916,359.613
			h-14.475h-39.748v-42.304h175.64v42.304h-0.001H221.916z M391.156,426.325c-0.001,38.856-31.612,70.467-70.468,70.467H191.313
			c-38.856,0-70.467-31.611-70.467-70.467v-26.976h45.642v30.759c0,12.226,9.947,22.173,22.173,22.173h134.686
			c12.227,0,22.173-9.947,22.173-22.173v-30.759h45.636V426.325z M406.363,322.964h24.074c2.473,0,4.562,2.09,4.562,4.562v15.079
			h-28.637V322.964z M435,393.905c-0.001,14.098-11.47,25.567-25.567,25.567h-3.07v-27.609c0.001-0.039,0.006-0.078,0.006-0.118
			c0-0.04-0.005-0.078-0.006-0.118v-6.259v-27.557H435V393.905z"/>
	</g>
</g>
<g>
	<g>
		<path d="M308.592,395.498h-30.319c-9.647,0-17.495,7.848-17.495,17.495s7.849,17.495,17.495,17.495h30.319
			c9.648,0,17.496-7.848,17.496-17.495S318.24,395.498,308.592,395.498z M308.592,415.281h-30.319c-1.24,0-2.287-1.047-2.287-2.287
			c0.001-1.24,1.048-2.287,2.287-2.287h30.319c1.241,0,2.288,1.047,2.288,2.287C310.88,414.233,309.833,415.281,308.592,415.281z"/>
	</g>
</g>
<g>
</g>
<g>
</g>
<g>
</g>
<g>
</g>
<g>
</g>
<g>
</g>
<g>
</g>
<g>
</g>
<g>
</g>
<g>
</g>
<g>
</g>
<g>
</g>
<g>
</g>
<g>
</g>
<g>
</g>
</svg>
